<svg version="1" xmlns="http://www.w3.org/2000/svg" width="682.667" height="682.667" viewBox="0 0 512.000000 512.000000"><path d="M237.5 22.1c-38.8 2.9-78 16.4-110 37.7-15.7 10.5-23.7 17-36.3 29.5-36.9 36.4-59.5 80.8-69.3 136.2-3.1 17.5-3.4 55.8-.6 73 8.5 51.4 29.5 93.6 64.7 129.9 37.8 39 83.9 62.4 138.5 70.2 16.3 2.4 46.8 2.4 63 0 43.1-6.2 80.8-22 113.8-47.7 51.3-39.9 84.3-99.5 90.8-164.4 1.5-14.8.7-45-1.6-59.5-3.8-24.2-12.6-51.9-23.6-74-12.4-25-26.3-44.3-46.1-63.7-13.2-13.1-21.4-19.8-36.3-29.5-43.4-28.6-94.9-41.8-147-37.7zm13.6 102.5c24.8 5 42.5 21.3 47 42.9 1.6 8.2.7 12.6-3.7 16.4-2.8 2.5-4.4 3.1-7.9 3.1-5.9 0-10.1-3.7-14.5-12.7-4.7-9.6-8.1-13.5-14.7-17-23.8-12.7-60.9-1.3-90.3 27.7-18.7 18.4-30.4 41.4-33.2 64.9-3.2 27.3 7 47.4 26 51.6 3.1.6 3.2.6 3.2-2.6 0-5.6 3.6-11.5 8.4-13.8 2.3-1.2 5.6-2.1 7.2-2.1 4.4 0 11.6 4 14.1 7.8l2.2 3.4 7.1-7.3c23.5-24 31.5-47.1 33.6-95.9.7-17.8 1.3-20.1 6.4-24.4 2.3-1.9 4.3-2.6 7.3-2.6 12.9 0 18.5 14.4 17.4 44-1.9 50.7-24.3 89.9-65.4 114.6-1.9 1.2-2 1.7-1.1 5.1 1.6 6.3 7.4 17.5 11.2 22 2 2.3 5.9 5.3 8.8 6.7 10.4 5.2 28 2.6 40.3-5.9 7.1-4.8 11.3-4.5 14.3 1.2 3.3 6.2.3 13.1-10 22.8-19.6 18.7-42.9 20.3-64 4.5-10.3-7.7-21.8-24.2-27.3-39.4l-2.6-7.1-12.2-.1c-19.8-.1-33.6-5.3-45.3-16.9-7.5-7.4-14.6-21.1-16.9-32.7-3.2-16.3-1.5-40.2 4.1-58 16.6-52.4 70.1-96.9 122.9-102.1 6-.6 20.2.3 27.6 1.9zm159 22.4c4.7 1.3 7.3 4.3 7.3 8.3 0 2.3-7.8 17.8-27.4 54.2-15 28.1-28.1 51.9-28.9 52.9-2.3 2.8-9 5.6-13.4 5.6-4.3 0-8.7-3.5-8.7-6.9 0-2.2 6.8-18.4 14.7-35.1 3-6.3 7.6-17.1 10.3-24 7-18.2 17.7-42.9 20.5-47.1 4.4-6.7 16.4-10.4 25.6-7.9zm-66.6 144.9c3.3 1.8 7.5 9.1 7.5 13.1 0 1.5-.7 5-1.6 8-2.1 7.2-10.8 16-17.7 17.9-9.3 2.6-17.7-.3-21.1-7.3-1.8-3.9-2.1-12.1-.5-16.3 5.2-14 22-21.7 33.4-15.4z"/></svg>